<svg id="visual" viewBox="0 0 900 600" width="900" height="600" xmlns="http://www.w3.org/2000/svg" xmlns:xlink="http://www.w3.org/1999/xlink" version="1.1"><rect x="0" y="0" width="900" height="600" fill="#141115"></rect><path d="M0 517L21.5 505C43 493 86 469 128.8 461.3C171.7 453.7 214.3 462.3 257.2 467C300 471.7 343 472.3 385.8 476.7C428.7 481 471.3 489 514.2 476.3C557 463.7 600 430.3 642.8 422.3C685.7 414.3 728.3 431.7 771.2 437.3C814 443 857 437 878.5 434L900 431L900 601L878.5 601C857 601 814 601 771.2 601C728.3 601 685.7 601 642.8 601C600 601 557 601 514.2 601C471.3 601 428.7 601 385.8 601C343 601 300 601 257.2 601C214.3 601 171.7 601 128.8 601C86 601 43 601 21.5 601L0 601Z" fill="#FFBE00" stroke-linecap="round" stroke-linejoin="miter"></path></svg>