<svg id="visual" viewBox="0 0 900 600" width="900" height="600" xmlns="http://www.w3.org/2000/svg" xmlns:xlink="http://www.w3.org/1999/xlink" version="1.1"><rect x="0" y="0" width="900" height="600" fill="#141115"></rect><path d="M0 480L21.5 478.3C43 476.7 86 473.3 128.8 471.5C171.7 469.7 214.3 469.3 257.2 474.2C300 479 343 489 385.8 485.5C428.7 482 471.3 465 514.2 457.2C557 449.3 600 450.7 642.8 451.7C685.7 452.7 728.3 453.3 771.2 447C814 440.7 857 427.3 878.5 420.7L900 414L900 601L878.5 601C857 601 814 601 771.2 601C728.3 601 685.7 601 642.8 601C600 601 557 601 514.2 601C471.3 601 428.7 601 385.8 601C343 601 300 601 257.2 601C214.3 601 171.7 601 128.8 601C86 601 43 601 21.5 601L0 601Z" fill="#FFBE00" stroke-linecap="round" stroke-linejoin="miter"></path></svg>