<svg id="visual" viewBox="0 0 900 600" width="900" height="600" xmlns="http://www.w3.org/2000/svg" xmlns:xlink="http://www.w3.org/1999/xlink" version="1.1"><rect x="0" y="0" width="900" height="600" fill="#141115"></rect><path d="M0 104L21.5 111C43 118 86 132 128.8 148.5C171.7 165 214.3 184 257.2 192C300 200 343 197 385.8 183C428.7 169 471.3 144 514.2 127.3C557 110.7 600 102.3 642.8 110.5C685.7 118.7 728.3 143.3 771.2 148.7C814 154 857 140 878.5 133L900 126L900 0L878.5 0C857 0 814 0 771.2 0C728.3 0 685.7 0 642.8 0C600 0 557 0 514.2 0C471.3 0 428.7 0 385.8 0C343 0 300 0 257.2 0C214.3 0 171.7 0 128.8 0C86 0 43 0 21.5 0L0 0Z" fill="#FFBE00" stroke-linecap="round" stroke-linejoin="miter"></path></svg>